<?xml version="1.0" encoding="utf-8"?>
<!-- Generator: Adobe Illustrator 25.4.1, SVG Export Plug-In . SVG Version: 6.00 Build 0)  -->
<svg version="1.1" id="Layer_1" xmlns="http://www.w3.org/2000/svg" xmlns:xlink="http://www.w3.org/1999/xlink" x="0px" y="0px"
	 viewBox="0 0 800 600" style="enable-background:new 0 0 800 600;" xml:space="preserve">
<style type="text/css">
	.st0{fill:#145E68;}
	.st1{fill:#23B5D3;}
</style>
<g>
	<path class="st0" d="M207.28,323.47c3.34,1.25,6.04,3.12,8.11,5.63c2.06,2.51,3.32,5.5,3.78,8.99c0.46,3.48,0.06,7.17-1.18,11.05
		c-2.06,6.41-5.76,10.78-11.12,13.12c-5.35,2.34-11.84,2.29-19.45-0.15l-2.41-0.77c-4.78-1.53-8.69-3.71-11.74-6.52
		c-3.05-2.81-5.05-6.09-6-9.84c-0.95-3.75-0.77-7.68,0.55-11.79c1.9-5.91,4.98-10.17,9.25-12.76c4.27-2.59,9.21-3.26,14.84-2
		l-3.76,11.72c-3-0.86-5.37-0.8-7.11,0.19c-1.75,0.99-3.08,2.93-4,5.8c-0.94,2.92-0.53,5.42,1.22,7.48c1.75,2.06,5.01,3.9,9.79,5.5
		l3.45,1.11c5.2,1.67,9.13,2.21,11.78,1.62c2.65-0.59,4.49-2.48,5.51-5.67c0.87-2.7,0.89-4.97,0.08-6.8
		c-0.81-1.84-2.59-3.24-5.33-4.22L207.28,323.47z"/>
	<path class="st0" d="M231.7,314.84l-5.32,10.63l-48.29-24.17l5.32-10.63L231.7,314.84z"/>
	<path class="st0" d="M194.14,284.06c-1.43-0.9-2.27-2.15-2.53-3.76c-0.26-1.61,0.13-3.23,1.17-4.88c1.04-1.64,2.34-2.69,3.9-3.15
		c1.56-0.46,3.06-0.23,4.48,0.67c1.43,0.9,2.27,2.15,2.53,3.76c0.26,1.61-0.13,3.23-1.17,4.88c-1.04,1.65-2.34,2.7-3.9,3.15
		C197.06,285.18,195.56,284.96,194.14,284.06z M241.31,298.96L234.97,309l-32.17-20.31l6.34-10.05L241.31,298.96z"/>
	<path class="st0" d="M248.16,276.49c1.09-1.25,1.6-2.52,1.52-3.8c-0.08-1.28-0.74-2.45-1.97-3.49l7.3-8.37
		c3.15,2.74,4.74,6.12,4.79,10.12c0.05,4.01-1.47,7.79-4.57,11.34c-3.63,4.17-7.81,6.32-12.52,6.44c-4.71,0.12-9.38-1.83-14.01-5.87
		l-0.37-0.32c-2.9-2.53-4.99-5.29-6.27-8.29c-1.29-3-1.65-6.03-1.08-9.08s2.05-5.96,4.45-8.71c3.25-3.73,6.86-5.79,10.84-6.18
		c3.98-0.39,7.73,0.96,11.27,4.04l-7.3,8.37c-1.48-1.29-2.94-1.92-4.37-1.89c-1.43,0.03-2.67,0.66-3.73,1.88
		c-2.02,2.31-1.72,4.95,0.89,7.91c0.83,0.94,2.06,2.13,3.71,3.56c2.88,2.51,5.18,3.91,6.89,4.19
		C245.34,278.6,246.85,277.99,248.16,276.49z"/>
	<path class="st0" d="M270.93,247.64l-0.7,4.67l6.44,8.7l-9.52,7.05L235,224.63l9.52-7.05l17.07,23.06l0.02-1.98l0.57-14.24
		l11.42-8.45l-1.4,20.5l24.74,9.55l-10.91,8.07L270.93,247.64z"/>
	<path class="st0" d="M313.05,184.28l20.78,31.1l1.16-37.37l15.62-4.47l14.08,49.21l-11.9,3.4l-3.29-11.49l-5.58-23.85l-1.88,38.42
		l-7.84,2.24l-21.96-31.64l7.89,23.23l3.29,11.49l-11.86,3.39l-14.08-49.21L313.05,184.28z"/>
	<path class="st0" d="M388.19,222.53c-5.82,0.45-10.66-0.92-14.53-4.11c-3.87-3.19-6.02-7.57-6.45-13.13l-0.08-0.98
		c-0.3-3.88,0.15-7.36,1.36-10.44c1.21-3.08,3.13-5.54,5.76-7.37c2.63-1.84,5.84-2.9,9.63-3.2c5.33-0.41,9.66,0.92,13,3.98
		c3.34,3.07,5.24,7.56,5.7,13.47l0.35,4.59l-23.48,1.82c0.59,2.09,1.64,3.69,3.16,4.8c1.52,1.1,3.41,1.57,5.68,1.39
		c3.74-0.29,6.56-1.82,8.46-4.6l5.89,5.96c-1.32,2.15-3.28,3.93-5.88,5.34C394.16,221.47,391.3,222.29,388.19,222.53z
		 M384.52,192.42c-3.46,0.27-5.34,2.72-5.64,7.35l11.92-0.92l-0.07-0.91c-0.1-1.9-0.69-3.33-1.78-4.29
		C387.87,192.69,386.39,192.28,384.52,192.42z"/>
	<path class="st0" d="M408.29,215.83c-0.01-1.73,0.61-3.16,1.86-4.28c1.25-1.12,2.81-1.68,4.69-1.69c1.88-0.01,3.44,0.54,4.7,1.65
		c1.26,1.11,1.89,2.53,1.9,4.26c0.01,1.73-0.61,3.16-1.86,4.28c-1.25,1.12-2.81,1.68-4.69,1.69c-1.88,0.01-3.44-0.54-4.7-1.65
		C408.93,218.99,408.3,217.57,408.29,215.83z M419.71,204.89l-9.6,0.04l-1.65-34.97l12.62-0.05L419.71,204.89z"/>
</g>
<g>
	<path class="st1" d="M211.16,320.5c3.34,1.25,6.04,3.12,8.11,5.63c2.06,2.51,3.32,5.5,3.78,8.99c0.46,3.48,0.06,7.17-1.18,11.05
		c-2.06,6.41-5.76,10.78-11.12,13.12c-5.35,2.34-11.84,2.29-19.45-0.15l-2.41-0.77c-4.78-1.53-8.69-3.71-11.74-6.52
		c-3.05-2.81-5.05-6.09-6-9.84c-0.95-3.75-0.77-7.68,0.55-11.79c1.9-5.91,4.98-10.17,9.25-12.76c4.27-2.59,9.21-3.26,14.84-2
		l-3.76,11.72c-3-0.86-5.37-0.8-7.11,0.19c-1.75,0.99-3.08,2.93-4,5.8c-0.94,2.92-0.53,5.42,1.22,7.48c1.75,2.06,5.01,3.9,9.79,5.5
		l3.45,1.11c5.2,1.67,9.13,2.21,11.78,1.62c2.65-0.59,4.49-2.48,5.51-5.67c0.87-2.7,0.89-4.97,0.08-6.8
		c-0.81-1.84-2.59-3.24-5.33-4.22L211.16,320.5z"/>
	<path class="st1" d="M235.58,311.87l-5.32,10.63l-48.29-24.17l5.32-10.63L235.58,311.87z"/>
	<path class="st1" d="M198.02,281.09c-1.43-0.9-2.27-2.15-2.53-3.76c-0.26-1.61,0.13-3.23,1.17-4.88c1.04-1.64,2.34-2.69,3.9-3.15
		c1.56-0.46,3.06-0.23,4.48,0.67c1.43,0.9,2.27,2.15,2.53,3.76c0.26,1.61-0.13,3.23-1.17,4.88c-1.04,1.65-2.34,2.7-3.9,3.15
		C200.94,282.21,199.45,281.99,198.02,281.09z M245.2,295.99l-6.34,10.05l-32.17-20.31l6.34-10.05L245.2,295.99z"/>
	<path class="st1" d="M252.04,273.52c1.09-1.25,1.6-2.52,1.52-3.8c-0.08-1.28-0.74-2.45-1.97-3.49l7.3-8.37
		c3.15,2.74,4.74,6.12,4.79,10.12c0.05,4.01-1.47,7.79-4.57,11.34c-3.63,4.17-7.81,6.32-12.52,6.44c-4.71,0.12-9.38-1.83-14.01-5.87
		l-0.37-0.32c-2.9-2.53-4.99-5.29-6.27-8.29c-1.29-3-1.65-6.03-1.08-9.08s2.05-5.96,4.45-8.71c3.25-3.73,6.86-5.79,10.84-6.18
		c3.98-0.39,7.73,0.96,11.27,4.04l-7.3,8.37c-1.48-1.29-2.94-1.92-4.37-1.89c-1.43,0.03-2.67,0.66-3.73,1.88
		c-2.02,2.31-1.72,4.95,0.89,7.91c0.83,0.94,2.06,2.13,3.71,3.56c2.88,2.51,5.18,3.91,6.89,4.19
		C249.22,275.63,250.73,275.02,252.04,273.52z"/>
	<path class="st1" d="M274.81,244.67l-0.7,4.67l6.44,8.7l-9.52,7.05l-32.15-43.43l9.52-7.05l17.07,23.06l0.02-1.98l0.57-14.24
		l11.42-8.45l-1.4,20.5l24.74,9.55l-10.91,8.07L274.81,244.67z"/>
	<path class="st1" d="M316.93,181.32l20.78,31.1l1.16-37.37l15.62-4.47l14.08,49.21l-11.9,3.4l-3.29-11.49l-5.58-23.85l-1.88,38.42
		l-7.84,2.24l-21.96-31.64l7.89,23.23l3.29,11.49l-11.86,3.39l-14.08-49.21L316.93,181.32z"/>
	<path class="st1" d="M392.07,219.56c-5.82,0.45-10.66-0.92-14.53-4.11c-3.87-3.19-6.02-7.57-6.45-13.13l-0.08-0.98
		c-0.3-3.88,0.15-7.36,1.36-10.44c1.21-3.08,3.13-5.54,5.76-7.37c2.63-1.84,5.84-2.9,9.63-3.2c5.33-0.41,9.66,0.92,13,3.98
		c3.34,3.07,5.24,7.56,5.7,13.47l0.35,4.59l-23.48,1.82c0.59,2.09,1.64,3.69,3.16,4.8c1.52,1.1,3.41,1.57,5.68,1.39
		c3.74-0.29,6.56-1.82,8.46-4.6l5.89,5.96c-1.32,2.15-3.28,3.93-5.88,5.34C398.04,218.5,395.18,219.32,392.07,219.56z M388.4,189.45
		c-3.46,0.27-5.34,2.72-5.64,7.35l11.92-0.92l-0.07-0.91c-0.1-1.9-0.69-3.33-1.78-4.29C391.75,189.72,390.27,189.31,388.4,189.45z"
		/>
	<path class="st1" d="M412.17,212.87c-0.01-1.73,0.61-3.16,1.86-4.28c1.25-1.12,2.81-1.68,4.69-1.69c1.88-0.01,3.44,0.54,4.7,1.65
		c1.26,1.11,1.89,2.53,1.9,4.26c0.01,1.73-0.61,3.16-1.86,4.28c-1.25,1.12-2.81,1.68-4.69,1.69c-1.88,0.01-3.44-0.54-4.7-1.65
		C412.81,216.02,412.18,214.6,412.17,212.87z M423.59,201.92l-9.6,0.04l-1.65-34.97l12.62-0.05L423.59,201.92z"/>
</g>
</svg>
